<svg width="215" height="54" viewBox="0 0 215 54" fill="none" xmlns="http://www.w3.org/2000/svg">
<path d="M27.5722 27.5141L29.7556 35.8497L31.9389 27.5141C32.4871 25.4204 32.7628 24.3719 33.3016 23.5091C33.7769 22.7513 34.3988 22.1048 35.1278 21.6108C35.9517 21.0507 36.9603 20.7674 38.9808 20.1944L47 17.9249L38.9808 15.6554C36.9666 15.0855 35.9611 14.799 35.1278 14.2389C34.3988 13.7449 33.7769 13.0984 33.3016 12.3406C32.7628 11.4843 32.4903 10.4358 31.9389 8.33563L29.7556 0L27.5722 8.33563C27.0241 10.4293 26.7484 11.4778 26.2096 12.3406C25.7343 13.0984 25.1123 13.7449 24.3834 14.2389C23.5595 14.799 22.5509 15.0823 20.5304 15.6554L12.5112 17.9249L20.5304 20.1944C22.5446 20.7642 23.5533 21.0507 24.3834 21.6108C25.1123 22.1048 25.7343 22.7513 26.2096 23.5091C26.7484 24.3654 27.0209 25.4139 27.5722 27.5141ZM8.40136 44.6412C8.93075 45.4357 9.22834 46.406 9.82978 48.3532L10.9637 52L12.0977 48.3532C12.696 46.4158 12.9967 45.4455 13.5261 44.6412C13.9929 43.9379 14.5912 43.3388 15.2835 42.8731C16.0634 42.3489 17.0063 42.0689 18.8858 41.5121L21.9275 40.6101L18.8858 39.7082C17.0032 39.1482 16.0603 38.8681 15.2835 38.3472C14.5916 37.8835 13.9945 37.2827 13.5261 36.5791C12.9967 35.7846 12.6991 34.8143 12.0977 32.8671L10.9637 29.2203L9.82978 32.8671C9.23147 34.8045 8.93075 35.7748 8.40136 36.5791C7.93462 37.2824 7.33631 37.8815 6.64403 38.3472C5.86404 38.8714 4.92115 39.1514 3.04166 39.7082L0 40.6101L3.04166 41.5121C4.92429 42.0721 5.86717 42.3522 6.64403 42.8731C7.33586 43.3368 7.93301 43.9376 8.40136 44.6412Z" fill="#1D4ED8"/>
<path d="M112.66 15.36H117.14V18H109.24V3.96H112.66V15.36ZM131.791 6.84V18H128.371V16.48C128.025 16.9733 127.551 17.3733 126.951 17.68C126.365 17.9733 125.711 18.12 124.991 18.12C124.138 18.12 123.385 17.9333 122.731 17.56C122.078 17.1733 121.571 16.62 121.211 15.9C120.851 15.18 120.671 14.3333 120.671 13.36V6.84H124.071V12.9C124.071 13.6467 124.265 14.2267 124.651 14.64C125.038 15.0533 125.558 15.26 126.211 15.26C126.878 15.26 127.405 15.0533 127.791 14.64C128.178 14.2267 128.371 13.6467 128.371 12.9V6.84H131.791ZM142.848 18L140.708 14.9L138.908 18H135.208L138.888 12.3L135.108 6.84H138.948L141.088 9.92L142.888 6.84H146.588L142.848 12.46L146.688 18H142.848ZM161.026 6.84V18H157.606V16.48C157.259 16.9733 156.786 17.3733 156.186 17.68C155.599 17.9733 154.946 18.12 154.226 18.12C153.372 18.12 152.619 17.9333 151.966 17.56C151.312 17.1733 150.806 16.62 150.446 15.9C150.086 15.18 149.906 14.3333 149.906 13.36V6.84H153.306V12.9C153.306 13.6467 153.499 14.2267 153.886 14.64C154.272 15.0533 154.792 15.26 155.446 15.26C156.112 15.26 156.639 15.0533 157.026 14.64C157.412 14.2267 157.606 13.6467 157.606 12.9V6.84H161.026ZM168.902 8.7C169.302 8.08667 169.802 7.60667 170.402 7.26C171.002 6.9 171.669 6.72 172.402 6.72V10.34H171.462C170.609 10.34 169.969 10.5267 169.542 10.9C169.116 11.26 168.902 11.9 168.902 12.82V18H165.482V6.84H168.902V8.7ZM187.437 6.84L180.437 23.3H176.757L179.317 17.62L174.777 6.84H178.597L181.177 13.82L183.737 6.84H187.437Z" fill="black"/>
<path d="M117.74 40.8C118.553 40.9733 119.207 41.38 119.7 42.02C120.193 42.6467 120.44 43.3667 120.44 44.18C120.44 45.3533 120.027 46.2867 119.2 46.98C118.387 47.66 117.247 48 115.78 48H109.24V33.96H115.56C116.987 33.96 118.1 34.2867 118.9 34.94C119.713 35.5933 120.12 36.48 120.12 37.6C120.12 38.4267 119.9 39.1133 119.46 39.66C119.033 40.2067 118.46 40.5867 117.74 40.8ZM112.66 39.64H114.9C115.46 39.64 115.887 39.52 116.18 39.28C116.487 39.0267 116.64 38.66 116.64 38.18C116.64 37.7 116.487 37.3333 116.18 37.08C115.887 36.8267 115.46 36.7 114.9 36.7H112.66V39.64ZM115.18 45.24C115.753 45.24 116.193 45.1133 116.5 44.86C116.82 44.5933 116.98 44.2133 116.98 43.72C116.98 43.2267 116.813 42.84 116.48 42.56C116.16 42.28 115.713 42.14 115.14 42.14H112.66V45.24H115.18ZM129.504 48.16C128.41 48.16 127.424 47.9267 126.544 47.46C125.677 46.9933 124.99 46.3267 124.484 45.46C123.99 44.5933 123.744 43.58 123.744 42.42C123.744 41.2733 123.997 40.2667 124.504 39.4C125.01 38.52 125.704 37.8467 126.584 37.38C127.464 36.9133 128.45 36.68 129.544 36.68C130.637 36.68 131.624 36.9133 132.504 37.38C133.384 37.8467 134.077 38.52 134.584 39.4C135.09 40.2667 135.344 41.2733 135.344 42.42C135.344 43.5667 135.084 44.58 134.564 45.46C134.057 46.3267 133.357 46.9933 132.464 47.46C131.584 47.9267 130.597 48.16 129.504 48.16ZM129.504 45.2C130.157 45.2 130.71 44.96 131.164 44.48C131.63 44 131.864 43.3133 131.864 42.42C131.864 41.5267 131.637 40.84 131.184 40.36C130.744 39.88 130.197 39.64 129.544 39.64C128.877 39.64 128.324 39.88 127.884 40.36C127.444 40.8267 127.224 41.5133 127.224 42.42C127.224 43.3133 127.437 44 127.864 44.48C128.304 44.96 128.85 45.2 129.504 45.2ZM150.178 36.84V48H146.758V46.48C146.411 46.9733 145.938 47.3733 145.338 47.68C144.751 47.9733 144.098 48.12 143.378 48.12C142.525 48.12 141.771 47.9333 141.118 47.56C140.465 47.1733 139.958 46.62 139.598 45.9C139.238 45.18 139.058 44.3333 139.058 43.36V36.84H142.458V42.9C142.458 43.6467 142.651 44.2267 143.038 44.64C143.425 45.0533 143.945 45.26 144.598 45.26C145.265 45.26 145.791 45.0533 146.178 44.64C146.565 44.2267 146.758 43.6467 146.758 42.9V36.84H150.178ZM160.855 45.1V48H159.115C157.875 48 156.908 47.7 156.215 47.1C155.521 46.4867 155.175 45.4933 155.175 44.12V39.68H153.815V36.84H155.175V34.12H158.595V36.84H160.835V39.68H158.595V44.16C158.595 44.4933 158.675 44.7333 158.835 44.88C158.995 45.0267 159.261 45.1 159.635 45.1H160.855ZM166.48 35.68C165.88 35.68 165.386 35.5067 165 35.16C164.626 34.8 164.44 34.36 164.44 33.84C164.44 33.3067 164.626 32.8667 165 32.52C165.386 32.16 165.88 31.98 166.48 31.98C167.066 31.98 167.546 32.16 167.92 32.52C168.306 32.8667 168.5 33.3067 168.5 33.84C168.5 34.36 168.306 34.8 167.92 35.16C167.546 35.5067 167.066 35.68 166.48 35.68ZM168.18 36.84V48H164.76V36.84H168.18ZM171.978 42.44C171.978 41.3333 172.205 40.3467 172.658 39.48C173.125 38.6133 173.745 37.94 174.518 37.46C175.305 36.9667 176.158 36.72 177.078 36.72C177.785 36.72 178.418 36.8467 178.978 37.1C179.538 37.34 179.991 37.68 180.338 38.12V36.84H183.758V53.32H180.338V46.6C179.951 47.0667 179.478 47.44 178.918 47.72C178.371 48 177.745 48.14 177.038 48.14C176.131 48.14 175.291 47.9 174.518 47.42C173.745 46.94 173.125 46.2667 172.658 45.4C172.205 44.5333 171.978 43.5467 171.978 42.44ZM180.338 42.42C180.338 41.82 180.218 41.32 179.978 40.92C179.751 40.5067 179.451 40.2 179.078 40C178.705 39.7867 178.311 39.68 177.898 39.68C177.498 39.68 177.111 39.7867 176.738 40C176.365 40.2 176.058 40.5067 175.818 40.92C175.578 41.3333 175.458 41.84 175.458 42.44C175.458 43.04 175.578 43.5467 175.818 43.96C176.058 44.36 176.365 44.6667 176.738 44.88C177.111 45.08 177.498 45.18 177.898 45.18C178.298 45.18 178.685 45.08 179.058 44.88C179.445 44.6667 179.751 44.3533 179.978 43.94C180.218 43.5267 180.338 43.02 180.338 42.42ZM199.252 36.84V48H195.832V46.48C195.486 46.9733 195.012 47.3733 194.412 47.68C193.826 47.9733 193.172 48.12 192.452 48.12C191.599 48.12 190.846 47.9333 190.192 47.56C189.539 47.1733 189.032 46.62 188.672 45.9C188.312 45.18 188.132 44.3333 188.132 43.36V36.84H191.532V42.9C191.532 43.6467 191.726 44.2267 192.112 44.64C192.499 45.0533 193.019 45.26 193.672 45.26C194.339 45.26 194.866 45.0533 195.252 44.64C195.639 44.2267 195.832 43.6467 195.832 42.9V36.84H199.252ZM214.229 42.24C214.229 42.56 214.209 42.8933 214.169 43.24H206.429C206.482 43.9333 206.702 44.4667 207.089 44.84C207.489 45.2 207.975 45.38 208.549 45.38C209.402 45.38 209.995 45.02 210.329 44.3H213.969C213.782 45.0333 213.442 45.6933 212.949 46.28C212.469 46.8667 211.862 47.3267 211.129 47.66C210.395 47.9933 209.575 48.16 208.669 48.16C207.575 48.16 206.602 47.9267 205.749 47.46C204.895 46.9933 204.229 46.3267 203.749 45.46C203.269 44.5933 203.029 43.58 203.029 42.42C203.029 41.26 203.262 40.2467 203.729 39.38C204.209 38.5133 204.875 37.8467 205.729 37.38C206.582 36.9133 207.562 36.68 208.669 36.68C209.749 36.68 210.709 36.9067 211.549 37.36C212.389 37.8133 213.042 38.46 213.509 39.3C213.989 40.14 214.229 41.12 214.229 42.24ZM210.729 41.34C210.729 40.7533 210.529 40.2867 210.129 39.94C209.729 39.5933 209.229 39.42 208.629 39.42C208.055 39.42 207.569 39.5867 207.169 39.92C206.782 40.2533 206.542 40.7267 206.449 41.34H210.729Z" fill="black"/>
<rect width="46" height="52" transform="translate(54)" fill="#1D4ED8"/>
<path d="M75.98 30.52H70.74L69.9 33H66.32L71.4 18.96H75.36L80.44 33H76.82L75.98 30.52ZM75.1 27.88L73.36 22.74L71.64 27.88H75.1ZM86.4061 18.96V33H82.9861V18.96H86.4061Z" fill="#EFF6FF"/>
</svg>
